<svg width="17" height="17" viewBox="0 0 17 17" fill="none" xmlns="http://www.w3.org/2000/svg">
<path d="M8.49984 2.14582C9.70817 2.14582 10.6873 3.12499 10.6873 4.33332C10.6873 5.54166 9.70817 6.52082 8.49984 6.52082C7.2915 6.52082 6.31234 5.54166 6.31234 4.33332C6.31234 3.12499 7.2915 2.14582 8.49984 2.14582ZM8.49984 11.5208C11.5936 11.5208 14.854 13.0417 14.854 13.7083V14.8542H2.14567V13.7083C2.14567 13.0417 5.40609 11.5208 8.49984 11.5208ZM8.49984 0.166656C6.19775 0.166656 4.33317 2.03124 4.33317 4.33332C4.33317 6.63541 6.19775 8.49999 8.49984 8.49999C10.8019 8.49999 12.6665 6.63541 12.6665 4.33332C12.6665 2.03124 10.8019 0.166656 8.49984 0.166656ZM8.49984 9.54166C5.71859 9.54166 0.166504 10.9375 0.166504 13.7083V16.8333H16.8332V13.7083C16.8332 10.9375 11.2811 9.54166 8.49984 9.54166Z" fill="#ED8719"/>
</svg>
